<svg xmlns="http://www.w3.org/2000/svg" xmlns:xlink="http://www.w3.org/1999/xlink" width="500" zoomAndPan="magnify" viewBox="0 0 375 374.999991" height="500" preserveAspectRatio="xMidYMid meet" version="1.0"><defs><clipPath id="9530c77a8b"><path d="M 238 88.394531 L 375 88.394531 L 375 230 L 238 230 Z M 238 88.394531 " clip-rule="nonzero"/></clipPath><clipPath id="66df4edaa1"><path d="M 92.445312 228 L 183.65625 228 L 183.65625 322.148438 L 92.445312 322.148438 Z M 92.445312 228 " clip-rule="nonzero"/></clipPath><clipPath id="37ef966780"><path d="M 4.0625 37.5 L 114 37.5 L 114 148 L 4.0625 148 Z M 4.0625 37.5 " clip-rule="nonzero"/></clipPath><clipPath id="67248cccd6"><path d="M 98 76 L 171.3125 76 L 171.3125 149 L 98 149 Z M 98 76 " clip-rule="nonzero"/></clipPath><clipPath id="f43485c328"><path d="M 38 131 L 132 131 L 132 224.25 L 38 224.25 Z M 38 131 " clip-rule="nonzero"/></clipPath><clipPath id="5ec232ee53"><path d="M 107 37.5 L 145 37.5 L 145 76 L 107 76 Z M 107 37.5 " clip-rule="nonzero"/></clipPath></defs><path fill="#f8a016" d="M 203.164062 249.980469 C 183.136719 249.980469 166.867188 233.679688 166.867188 213.644531 C 166.867188 193.628906 183.136719 177.359375 203.164062 177.359375 C 223.179688 177.359375 239.472656 193.628906 239.472656 213.644531 C 239.472656 233.679688 223.179688 249.980469 203.164062 249.980469 Z M 255.324219 218.113281 C 255.453125 216.644531 255.515625 215.167969 255.515625 213.644531 C 255.515625 212.164062 255.453125 210.683594 255.324219 209.191406 L 270.632812 198.703125 C 271.515625 198.132812 271.90625 196.996094 271.648438 195.960938 C 270.878906 192.988281 269.984375 190.277344 269 187.695312 C 268.613281 186.671875 267.695312 186.128906 266.574219 186.066406 L 247.960938 186.585938 C 246.425781 184.109375 244.710938 181.703125 242.765625 179.445312 L 249.007812 161.804688 C 249.332031 160.820312 249.070312 159.6875 248.207031 158.984375 C 246.199219 157.34375 244.007812 155.734375 241.167969 153.941406 C 240.273438 153.335938 239.09375 153.410156 238.230469 154.070312 L 223.503906 165.421875 C 220.699219 164.234375 217.859375 163.296875 215.019531 162.648438 L 209.824219 144.855469 C 209.535156 143.851562 208.582031 143.097656 207.527344 143.03125 L 206.660156 142.964844 C 204.339844 142.816406 201.976562 142.816406 199.644531 142.964844 L 198.824219 143.03125 C 197.734375 143.097656 196.847656 143.851562 196.523438 144.855469 L 191.296875 162.648438 C 188.492188 163.296875 185.621094 164.234375 182.8125 165.421875 L 168.117188 154.070312 C 167.253906 153.410156 166.046875 153.335938 165.148438 153.941406 C 162.375 155.734375 160.105469 157.34375 158.109375 158.984375 C 157.3125 159.6875 156.988281 160.820312 157.363281 161.804688 L 163.617188 179.445312 C 161.640625 181.703125 159.890625 184.109375 158.390625 186.585938 L 139.796875 186.066406 C 138.835938 186.097656 137.726562 186.671875 137.316406 187.695312 C 136.320312 190.277344 135.425781 192.988281 134.671875 195.960938 C 134.410156 196.996094 134.800781 198.132812 135.683594 198.703125 L 151.027344 209.191406 C 150.863281 210.683594 150.800781 212.164062 150.800781 213.644531 C 150.800781 215.167969 150.863281 216.644531 151.027344 218.113281 L 135.683594 228.59375 C 134.800781 229.230469 134.410156 230.308594 134.671875 231.367188 C 135.425781 234.339844 136.320312 237.027344 137.316406 239.609375 C 137.726562 240.617188 138.835938 241.351562 139.796875 241.253906 L 158.390625 240.746094 C 159.890625 243.207031 161.640625 245.617188 163.617188 247.875 L 157.363281 265.503906 C 156.988281 266.507812 157.3125 267.640625 158.109375 268.34375 C 160.183594 269.984375 162.472656 271.648438 165.148438 273.378906 C 166.109375 273.960938 167.253906 273.90625 168.117188 273.238281 L 182.8125 261.882812 C 185.652344 263.09375 188.492188 264.035156 191.296875 264.660156 L 196.523438 282.472656 C 196.847656 283.507812 197.734375 284.222656 198.824219 284.296875 L 199.96875 284.375 C 201.015625 284.449219 202.074219 284.503906 203.164062 284.503906 C 204.242188 284.503906 205.324219 284.449219 206.414062 284.375 L 207.527344 284.296875 C 208.582031 284.222656 209.535156 283.507812 209.824219 282.472656 L 215.019531 264.660156 C 217.859375 264.035156 220.699219 263.09375 223.503906 261.882812 L 238.230469 273.238281 C 239.09375 273.894531 240.273438 273.960938 241.167969 273.378906 C 243.878906 271.648438 246.199219 269.984375 248.207031 268.34375 C 249.070312 267.640625 249.332031 266.507812 249.007812 265.503906 L 242.765625 247.875 C 244.710938 245.617188 246.457031 243.207031 247.960938 240.746094 L 266.574219 241.253906 C 267.695312 241.316406 268.613281 240.617188 269 239.609375 C 270.015625 237.027344 270.878906 234.339844 271.648438 231.367188 C 271.90625 230.308594 271.515625 229.230469 270.632812 228.59375 L 255.324219 218.113281 " fill-opacity="1" fill-rule="nonzero"/><path fill="#ffffff" d="M 296.523438 225.179688 C 282.808594 225.179688 271.648438 236.285156 271.648438 250.003906 C 271.648438 263.71875 282.808594 274.847656 296.523438 274.847656 C 310.167969 274.847656 321.320312 263.71875 321.320312 250.003906 C 321.320312 236.285156 310.167969 225.179688 296.523438 225.179688 Z M 296.523438 307.578125 C 295.5625 307.578125 294.601562 307.53125 293.84375 307.480469 L 292.949219 307.425781 C 290.8125 307.273438 288.996094 305.828125 288.425781 303.785156 L 284.882812 291.792969 C 283.707031 291.449219 282.550781 291.070312 281.34375 290.640625 L 271.429688 298.277344 C 270.566406 298.945312 269.476562 299.34375 268.332031 299.34375 C 267.371094 299.34375 266.421875 299.042969 265.589844 298.558594 C 263.515625 297.21875 261.671875 295.878906 259.910156 294.453125 C 258.257812 293.082031 257.621094 290.800781 258.324219 288.800781 L 262.589844 276.953125 C 261.769531 275.980469 261.066406 274.976562 260.363281 273.960938 L 247.925781 274.328125 C 247.796875 274.328125 247.730469 274.328125 247.601562 274.328125 C 245.628906 274.328125 243.714844 273 242.980469 271.085938 C 242.183594 269.011719 241.449219 266.820312 240.8125 264.421875 C 240.273438 262.347656 241.101562 260.175781 242.820312 258.945312 L 253.183594 251.847656 C 253.152344 251.253906 253.152344 250.617188 253.152344 250.003906 C 253.152344 249.386719 253.152344 248.769531 253.21875 248.144531 L 242.882812 241.070312 C 241.101562 239.902344 240.273438 237.71875 240.8125 235.644531 C 241.449219 233.171875 242.152344 230.980469 242.980469 228.882812 C 243.683594 227.082031 245.5625 225.804688 247.601562 225.707031 C 247.667969 225.707031 247.796875 225.707031 247.796875 225.707031 L 260.363281 226.042969 C 261.066406 225.039062 261.820312 224.011719 262.589844 223.074219 L 258.324219 211.191406 C 257.621094 209.191406 258.257812 206.933594 259.910156 205.574219 C 261.574219 204.203125 263.355469 202.894531 265.589844 201.480469 C 266.421875 200.949219 267.371094 200.679688 268.332031 200.679688 C 269.476562 200.679688 270.566406 201.046875 271.429688 201.75 L 281.34375 209.386719 C 282.550781 208.921875 283.726562 208.542969 284.882812 208.210938 L 288.425781 196.230469 C 289.019531 194.167969 290.84375 192.730469 292.949219 192.613281 L 293.554688 192.558594 C 294.546875 192.480469 295.496094 192.460938 296.523438 192.460938 C 297.472656 192.460938 298.496094 192.480469 299.457031 192.558594 L 300.050781 192.613281 C 302.167969 192.730469 303.984375 194.167969 304.554688 196.230469 L 308.128906 208.21875 C 309.273438 208.542969 310.449219 208.921875 311.625 209.386719 L 321.582031 201.71875 C 322.414062 201.046875 323.523438 200.679688 324.648438 200.679688 C 325.628906 200.679688 326.589844 200.949219 327.378906 201.480469 C 329.679688 202.925781 331.460938 204.222656 333.121094 205.574219 C 334.71875 206.933594 335.390625 209.191406 334.65625 211.191406 L 330.445312 223.074219 C 331.210938 224.011719 331.945312 225.039062 332.613281 226.042969 C 332.613281 226.042969 345.203125 225.707031 345.238281 225.707031 C 345.300781 225.707031 345.332031 225.707031 345.367188 225.707031 C 347.503906 225.804688 349.285156 227.027344 350.019531 228.925781 C 350.816406 230.980469 351.519531 233.171875 352.1875 235.613281 C 352.695312 237.71875 351.867188 239.902344 350.085938 241.078125 L 339.785156 248.144531 C 339.816406 248.769531 339.816406 249.386719 339.816406 250.003906 C 339.816406 250.617188 339.816406 251.253906 339.785156 251.847656 L 350.148438 258.945312 C 351.867188 260.144531 352.695312 262.316406 352.1875 264.367188 C 351.550781 266.84375 350.816406 269.046875 350.019531 271.121094 C 349.253906 273.042969 347.40625 274.328125 345.367188 274.328125 C 345.300781 274.328125 345.183594 274.328125 345.105469 274.328125 L 332.613281 273.960938 C 331.945312 274.976562 331.210938 275.980469 330.445312 276.953125 L 334.65625 288.835938 C 335.359375 290.800781 334.71875 293.082031 333.121094 294.417969 C 331.4375 295.824219 329.550781 297.152344 327.378906 298.558594 C 326.589844 299.042969 325.664062 299.3125 324.648438 299.3125 C 323.558594 299.3125 322.476562 298.945312 321.582031 298.296875 L 311.625 290.640625 C 310.480469 291.070312 309.273438 291.449219 308.128906 291.792969 L 304.554688 303.796875 C 303.984375 305.792969 302.199219 307.273438 300.050781 307.425781 L 299.136719 307.480469 C 298.367188 307.53125 297.441406 307.578125 296.523438 307.578125 " fill-opacity="1" fill-rule="nonzero"/><path fill="#abd91a" d="M 296.523438 277.945312 C 281.082031 277.945312 268.589844 265.417969 268.589844 250.003906 C 268.589844 234.585938 281.082031 222.070312 296.523438 222.070312 C 311.886719 222.070312 324.421875 234.585938 324.421875 250.003906 C 324.421875 265.417969 311.886719 277.945312 296.523438 277.945312 Z M 336.632812 253.425781 C 336.695312 252.292969 336.761719 251.15625 336.761719 250.003906 C 336.761719 248.847656 336.695312 247.710938 336.632812 246.589844 L 348.398438 238.5 C 349.070312 238.054688 349.382812 237.203125 349.199219 236.414062 C 348.550781 234.101562 347.914062 232.027344 347.15625 230.039062 C 346.835938 229.261719 346.101562 228.832031 345.238281 228.789062 L 330.921875 229.164062 C 329.808594 227.273438 328.4375 225.4375 326.9375 223.710938 L 331.75 210.144531 C 332.011719 209.355469 331.785156 208.5 331.113281 207.941406 C 329.613281 206.707031 327.898438 205.464844 325.726562 204.074219 C 325.023438 203.628906 324.128906 203.671875 323.492188 204.167969 L 312.144531 212.898438 C 309.976562 211.992188 307.804688 211.265625 305.632812 210.792969 L 301.585938 197.082031 C 301.371094 196.296875 300.667969 195.734375 299.835938 195.699219 L 299.199219 195.636719 C 297.40625 195.527344 295.5625 195.527344 293.78125 195.636719 L 293.144531 195.699219 C 292.3125 195.734375 291.609375 196.296875 291.382812 197.082031 L 287.367188 210.792969 C 285.195312 211.265625 283.003906 211.992188 280.835938 212.898438 L 269.542969 204.167969 C 268.839844 203.671875 267.945312 203.628906 267.273438 204.074219 C 265.113281 205.464844 263.386719 206.707031 261.855469 207.941406 C 261.226562 208.5 260.96875 209.355469 261.261719 210.144531 L 266.066406 223.710938 C 264.5625 225.4375 263.226562 227.273438 262.046875 229.164062 L 247.730469 228.789062 C 247.03125 228.820312 246.144531 229.261719 245.855469 230.039062 C 245.054688 232.027344 244.417969 234.101562 243.8125 236.414062 C 243.617188 237.203125 243.910156 238.054688 244.613281 238.5 L 256.402344 246.589844 C 256.285156 247.710938 256.25 248.847656 256.25 250.003906 C 256.25 251.15625 256.285156 252.292969 256.402344 253.425781 L 244.613281 261.496094 C 243.910156 261.980469 243.617188 262.824219 243.8125 263.625 C 244.417969 265.914062 245.054688 267.988281 245.855469 269.984375 C 246.144531 270.753906 247.03125 271.304688 247.730469 271.21875 L 262.046875 270.828125 C 263.226562 272.730469 264.5625 274.566406 266.066406 276.316406 L 261.261719 289.871094 C 260.96875 290.671875 261.226562 291.535156 261.855469 292.066406 C 263.417969 293.339844 265.210938 294.613281 267.273438 295.933594 C 267.945312 296.386719 268.839844 296.351562 269.542969 295.824219 L 280.855469 287.097656 C 283.027344 288.003906 285.195312 288.738281 287.367188 289.234375 L 291.382812 302.941406 C 291.609375 303.699219 292.3125 304.28125 293.144531 304.324219 L 294.027344 304.410156 C 294.859375 304.421875 295.660156 304.496094 296.523438 304.496094 C 297.308594 304.496094 298.175781 304.421875 298.941406 304.410156 L 299.835938 304.324219 C 300.667969 304.28125 301.371094 303.699219 301.585938 302.941406 L 305.632812 289.234375 C 307.773438 288.738281 309.976562 288.003906 312.144531 287.097656 L 323.492188 295.824219 C 324.128906 296.332031 325.023438 296.386719 325.726562 295.933594 C 327.800781 294.613281 329.582031 293.339844 331.113281 292.066406 C 331.785156 291.535156 332.011719 290.671875 331.75 289.871094 L 326.9375 276.316406 C 328.4375 274.566406 329.808594 272.730469 330.921875 270.828125 L 345.238281 271.21875 C 346.101562 271.269531 346.835938 270.753906 347.15625 269.984375 C 347.914062 267.988281 348.617188 265.914062 349.199219 263.625 C 349.382812 262.824219 349.070312 261.980469 348.398438 261.496094 L 336.632812 253.425781 " fill-opacity="1" fill-rule="nonzero"/><g clip-path="url(#9530c77a8b)"><path fill="#ffffff" d="M 306.59375 128.566406 C 289.828125 128.566406 276.171875 142.230469 276.171875 159.027344 C 276.171875 175.824219 289.828125 189.5 306.59375 189.5 C 323.425781 189.5 337.074219 175.824219 337.074219 159.027344 C 337.074219 142.230469 323.425781 128.566406 306.59375 128.566406 Z M 306.59375 229.664062 C 305.449219 229.664062 304.328125 229.609375 303.34375 229.53125 L 302.320312 229.46875 C 299.640625 229.296875 297.40625 227.511719 296.707031 225.007812 L 292.375 210.292969 C 290.941406 209.894531 289.503906 209.441406 288.035156 208.878906 L 275.859375 218.253906 C 274.832031 219.066406 273.429688 219.5625 272.058594 219.5625 C 270.878906 219.5625 269.703125 219.214844 268.722656 218.578125 C 266.164062 216.949219 263.863281 215.316406 261.703125 213.554688 C 259.695312 211.882812 258.894531 209.09375 259.847656 206.644531 L 264.984375 192.082031 C 264.058594 190.871094 263.171875 189.671875 262.308594 188.410156 L 247.03125 188.875 C 246.902344 188.875 246.78125 188.875 246.652344 188.875 C 244.222656 188.875 241.871094 187.230469 240.972656 184.886719 C 239.949219 182.339844 239.09375 179.660156 238.296875 176.667969 C 237.660156 174.171875 238.652344 171.492188 240.78125 170.003906 L 253.476562 161.308594 C 253.445312 160.585938 253.445312 159.796875 253.445312 159.027344 C 253.445312 158.273438 253.445312 157.515625 253.476562 156.71875 L 240.8125 148.066406 C 238.683594 146.617188 237.660156 143.9375 238.296875 141.390625 C 239.09375 138.398438 239.949219 135.6875 240.972656 133.113281 C 241.835938 130.910156 244.105469 129.3125 246.652344 129.214844 C 246.71875 129.214844 246.902344 129.214844 246.902344 129.214844 L 262.308594 129.613281 C 263.171875 128.394531 264.058594 127.164062 264.984375 125.964844 L 259.78125 111.371094 C 258.894531 108.949219 259.695312 106.175781 261.703125 104.511719 C 263.742188 102.828125 265.96875 101.226562 268.722656 99.488281 C 269.703125 98.851562 270.878906 98.503906 272.058594 98.503906 C 273.429688 98.503906 274.777344 98.992188 275.859375 99.800781 L 288.035156 109.1875 C 289.503906 108.628906 290.972656 108.152344 292.375 107.761719 L 296.707031 93.0625 C 297.441406 90.523438 299.675781 88.742188 302.320312 88.601562 L 303.023438 88.546875 C 304.167969 88.480469 305.417969 88.40625 306.59375 88.40625 C 307.804688 88.40625 309.015625 88.480469 310.234375 88.546875 L 311 88.601562 C 313.546875 88.742188 315.773438 90.523438 316.507812 93.0625 L 320.847656 107.761719 C 322.28125 108.164062 323.75 108.628906 325.1875 109.1875 L 337.398438 99.769531 C 338.414062 98.992188 339.75 98.503906 341.15625 98.503906 C 342.363281 98.503906 343.519531 98.851562 344.535156 99.488281 C 347.308594 101.269531 349.511719 102.871094 351.519531 104.511719 C 353.527344 106.175781 354.328125 108.949219 353.429688 111.402344 L 348.238281 125.964844 C 349.199219 127.164062 350.085938 128.371094 350.914062 129.613281 C 350.914062 129.613281 366.410156 129.214844 366.441406 129.214844 C 366.472656 129.214844 366.539062 129.214844 366.601562 129.214844 C 369.183594 129.3125 371.386719 130.835938 372.269531 133.179688 C 373.296875 135.652344 374.128906 138.34375 374.925781 141.390625 C 375.5625 143.9375 374.570312 146.617188 372.410156 148.066406 L 359.78125 156.71875 C 359.78125 157.515625 359.78125 158.273438 359.78125 159.027344 C 359.78125 159.796875 359.78125 160.585938 359.78125 161.308594 L 372.410156 170.003906 C 374.570312 171.492188 375.5625 174.140625 374.925781 176.65625 C 374.128906 179.691406 373.296875 182.371094 372.25 184.953125 C 371.351562 187.328125 369.097656 188.875 366.601562 188.875 C 366.472656 188.875 366.410156 188.875 366.289062 188.875 L 350.914062 188.410156 C 350.085938 189.671875 349.199219 190.871094 348.238281 192.082031 L 353.429688 206.664062 C 354.328125 209.09375 353.527344 211.882812 351.550781 213.535156 C 349.445312 215.242188 347.179688 216.882812 344.511719 218.578125 C 343.550781 219.195312 342.363281 219.53125 341.1875 219.53125 C 339.816406 219.53125 338.476562 219.097656 337.398438 218.289062 L 325.1875 208.878906 C 323.75 209.441406 322.28125 209.894531 320.847656 210.292969 L 316.507812 225.007812 C 315.835938 227.492188 313.582031 229.296875 311 229.46875 L 309.84375 229.53125 C 308.882812 229.609375 307.773438 229.664062 306.59375 229.664062 " fill-opacity="1" fill-rule="nonzero"/></g><path fill="#6db6e7" d="M 306.59375 193.3125 C 287.722656 193.3125 272.382812 177.933594 272.382812 159.027344 C 272.382812 140.136719 287.722656 124.753906 306.59375 124.753906 C 325.53125 124.753906 340.875 140.136719 340.875 159.027344 C 340.875 177.933594 325.53125 193.3125 306.59375 193.3125 Z M 355.828125 163.230469 C 355.957031 161.828125 356.011719 160.433594 356.011719 159.027344 C 356.011719 157.613281 355.957031 156.210938 355.828125 154.804688 L 370.304688 144.933594 C 371.125 144.359375 371.515625 143.324219 371.257812 142.351562 C 370.488281 139.507812 369.691406 136.960938 368.773438 134.519531 C 368.351562 133.578125 367.5 133.050781 366.441406 132.996094 L 348.875 133.480469 C 347.472656 131.117188 345.808594 128.871094 343.960938 126.730469 L 349.867188 110.128906 C 350.214844 109.15625 349.902344 108.097656 349.132812 107.449219 C 347.222656 105.894531 345.140625 104.382812 342.472656 102.675781 C 341.609375 102.125 340.484375 102.167969 339.730469 102.792969 L 325.792969 113.519531 C 323.148438 112.40625 320.5 111.511719 317.824219 110.894531 L 312.910156 94.109375 C 312.621094 93.160156 311.757812 92.457031 310.707031 92.390625 L 309.976562 92.335938 C 307.738281 92.1875 305.449219 92.1875 303.28125 92.335938 L 302.515625 92.390625 C 301.5 92.457031 300.667969 93.160156 300.34375 94.109375 L 295.433594 110.894531 C 292.753906 111.511719 290.078125 112.40625 287.429688 113.519531 L 273.558594 102.792969 C 272.726562 102.167969 271.613281 102.125 270.761719 102.675781 C 268.074219 104.382812 266 105.894531 264.121094 107.449219 C 263.355469 108.097656 263.042969 109.15625 263.355469 110.128906 L 269.292969 126.730469 C 267.4375 128.871094 265.785156 131.117188 264.378906 133.480469 L 246.78125 132.996094 C 245.949219 133.050781 244.859375 133.578125 244.484375 134.519531 C 243.523438 136.960938 242.734375 139.507812 241.988281 142.351562 C 241.738281 143.324219 242.117188 144.359375 242.949219 144.933594 L 257.425781 154.804688 C 257.265625 156.210938 257.199219 157.613281 257.199219 159.027344 C 257.199219 160.433594 257.265625 161.828125 257.425781 163.230469 L 242.949219 173.136719 C 242.117188 173.707031 241.738281 174.746094 241.988281 175.71875 C 242.734375 178.535156 243.523438 181.097656 244.484375 183.515625 C 244.859375 184.457031 245.949219 185.160156 246.78125 185.0625 L 264.378906 184.554688 C 265.785156 186.910156 267.4375 189.199219 269.292969 191.335938 L 263.355469 207.941406 C 263.042969 208.910156 263.355469 209.960938 264.121094 210.617188 C 266.03125 212.183594 268.203125 213.738281 270.761719 215.382812 C 271.648438 215.910156 272.726562 215.890625 273.558594 215.261719 L 287.464844 204.503906 C 290.078125 205.660156 292.753906 206.546875 295.433594 207.140625 L 300.34375 223.949219 C 300.667969 224.921875 301.5 225.613281 302.515625 225.675781 L 303.59375 225.75 C 304.585938 225.804688 305.601562 225.882812 306.59375 225.882812 C 307.609375 225.882812 308.636719 225.804688 309.660156 225.75 L 310.707031 225.675781 C 311.734375 225.613281 312.621094 224.921875 312.910156 223.949219 L 317.824219 207.140625 C 320.457031 206.546875 323.148438 205.660156 325.792969 204.503906 L 339.730469 215.261719 C 340.519531 215.867188 341.609375 215.910156 342.472656 215.382812 C 345.019531 213.738281 347.179688 212.183594 349.132812 210.617188 C 349.902344 209.960938 350.214844 208.910156 349.867188 207.941406 L 343.960938 191.335938 C 345.808594 189.199219 347.472656 186.910156 348.875 184.554688 L 366.441406 185.0625 C 367.5 185.148438 368.351562 184.457031 368.773438 183.515625 C 369.691406 181.097656 370.488281 178.535156 371.257812 175.71875 C 371.515625 174.746094 371.125 173.707031 370.304688 173.136719 L 355.828125 163.230469 " fill-opacity="1" fill-rule="nonzero"/><g clip-path="url(#66df4edaa1)"><path fill="#ffffff" d="M 137.855469 255.101562 C 126.703125 255.101562 117.644531 264.183594 117.644531 275.3125 C 117.644531 286.449219 126.703125 295.5 137.855469 295.5 C 148.988281 295.5 158.035156 286.449219 158.035156 275.3125 C 158.035156 264.183594 148.988281 255.101562 137.855469 255.101562 Z M 137.855469 322.148438 C 137.089844 322.148438 136.320312 322.09375 135.683594 322.050781 L 134.984375 321.996094 C 133.265625 321.878906 131.734375 320.691406 131.289062 319.035156 L 128.417969 309.304688 C 127.457031 309.035156 126.476562 308.710938 125.546875 308.332031 L 117.449219 314.566406 C 116.746094 315.105469 115.851562 315.429688 114.933594 315.429688 C 114.167969 315.429688 113.402344 315.203125 112.730469 314.769531 C 111.003906 313.699219 109.515625 312.621094 108.078125 311.441406 C 106.738281 310.308594 106.222656 308.503906 106.804688 306.863281 L 110.25 297.21875 C 109.601562 296.429688 109.027344 295.597656 108.488281 294.808594 L 98.316406 295.078125 C 98.253906 295.078125 98.1875 295.078125 98.089844 295.078125 C 96.472656 295.078125 94.9375 294.019531 94.300781 292.476562 C 93.664062 290.78125 93.09375 288.976562 92.574219 287.007812 C 92.132812 285.347656 92.832031 283.574219 94.238281 282.582031 L 102.625 276.835938 C 102.59375 276.316406 102.59375 275.820312 102.59375 275.3125 C 102.59375 274.804688 102.59375 274.296875 102.625 273.796875 L 94.238281 268.019531 C 92.832031 267.070312 92.132812 265.308594 92.574219 263.625 C 93.09375 261.648438 93.664062 259.84375 94.335938 258.148438 C 94.9375 256.679688 96.441406 255.609375 98.089844 255.554688 C 98.125 255.554688 98.253906 255.554688 98.285156 255.554688 L 108.488281 255.835938 C 109.027344 254.992188 109.632812 254.191406 110.25 253.394531 L 106.804688 243.726562 C 106.222656 242.117188 106.738281 240.28125 108.078125 239.179688 C 109.449219 238.066406 110.917969 237.019531 112.730469 235.851562 C 113.402344 235.417969 114.167969 235.191406 114.933594 235.191406 C 115.851562 235.191406 116.746094 235.515625 117.449219 236.078125 L 125.546875 242.269531 C 126.507812 241.921875 127.457031 241.585938 128.417969 241.316406 L 131.289062 231.5625 C 131.734375 229.910156 133.265625 228.722656 134.984375 228.625 L 135.46875 228.59375 C 136.234375 228.539062 137.054688 228.496094 137.855469 228.496094 C 138.652344 228.496094 139.453125 228.539062 140.21875 228.59375 L 140.726562 228.625 C 142.445312 228.722656 143.945312 229.910156 144.417969 231.597656 L 147.292969 241.316406 C 148.253906 241.585938 149.171875 241.921875 150.164062 242.289062 L 158.261719 236.046875 C 158.929688 235.515625 159.859375 235.191406 160.753906 235.191406 C 161.511719 235.191406 162.308594 235.417969 162.980469 235.851562 C 164.835938 237.027344 166.304688 238.097656 167.609375 239.179688 C 168.980469 240.28125 169.488281 242.117188 168.851562 243.757812 L 165.441406 253.394531 C 166.046875 254.183594 166.683594 254.992188 167.191406 255.835938 C 167.191406 255.835938 177.457031 255.554688 177.523438 255.554688 C 177.523438 255.554688 177.554688 255.554688 177.585938 255.554688 C 179.335938 255.640625 180.773438 256.632812 181.34375 258.167969 C 182.011719 259.84375 182.597656 261.613281 183.136719 263.625 C 183.546875 265.308594 182.878906 267.070312 181.472656 268.019531 L 173.0625 273.796875 C 173.09375 274.296875 173.09375 274.804688 173.09375 275.3125 C 173.09375 275.820312 173.09375 276.316406 173.0625 276.835938 L 181.472656 282.582031 C 182.878906 283.574219 183.515625 285.347656 183.136719 287.007812 C 182.628906 288.996094 182.011719 290.78125 181.34375 292.476562 C 180.738281 294.050781 179.304688 295.078125 177.652344 295.078125 C 177.523438 295.078125 177.457031 295.078125 177.359375 295.078125 L 167.191406 294.808594 C 166.683594 295.597656 166.046875 296.429688 165.441406 297.21875 L 168.851562 306.875 C 169.457031 308.503906 168.980469 310.308594 167.644531 311.441406 C 166.238281 312.578125 164.707031 313.65625 162.945312 314.769531 C 162.34375 315.203125 161.574219 315.429688 160.753906 315.429688 C 159.859375 315.429688 158.960938 315.105469 158.261719 314.566406 L 150.164062 308.332031 C 149.203125 308.710938 148.253906 309.035156 147.292969 309.304688 L 144.417969 319.058594 C 143.945312 320.691406 142.445312 321.878906 140.726562 321.996094 L 139.992188 322.050781 C 139.386719 322.09375 138.621094 322.148438 137.855469 322.148438 " fill-opacity="1" fill-rule="nonzero"/></g><path fill="#ed1d49" d="M 137.855469 298.039062 C 125.332031 298.039062 115.148438 287.820312 115.148438 275.3125 C 115.148438 262.78125 125.332031 252.582031 137.855469 252.582031 C 150.359375 252.582031 160.5625 262.78125 160.5625 275.3125 C 160.5625 287.820312 150.359375 298.039062 137.855469 298.039062 Z M 170.472656 278.097656 C 170.535156 277.15625 170.570312 276.25 170.570312 275.3125 C 170.570312 274.371094 170.535156 273.441406 170.472656 272.535156 L 180.070312 265.945312 C 180.589844 265.601562 180.835938 264.898438 180.675781 264.238281 C 180.199219 262.359375 179.660156 260.683594 179.023438 259.054688 C 178.796875 258.4375 178.222656 258.105469 177.523438 258.058594 L 165.851562 258.382812 C 164.902344 256.828125 163.808594 255.328125 162.601562 253.902344 L 166.488281 242.917969 C 166.746094 242.269531 166.550781 241.542969 166.011719 241.132812 C 164.769531 240.097656 163.398438 239.09375 161.640625 237.96875 C 161.066406 237.589844 160.300781 237.632812 159.792969 238.054688 L 150.542969 245.152344 C 148.792969 244.417969 147.042969 243.8125 145.25 243.421875 L 142 232.277344 C 141.808594 231.648438 141.234375 231.195312 140.566406 231.132812 L 140.089844 231.097656 C 138.589844 231 137.089844 231 135.621094 231.097656 L 135.113281 231.132812 C 134.476562 231.195312 133.871094 231.648438 133.675781 232.277344 L 130.425781 243.421875 C 128.636719 243.8125 126.886719 244.417969 125.136719 245.152344 L 115.917969 238.054688 C 115.375 237.632812 114.644531 237.589844 114.070312 237.96875 C 112.34375 239.09375 110.9375 240.097656 109.664062 241.132812 C 109.15625 241.542969 108.929688 242.269531 109.15625 242.917969 L 113.109375 253.902344 C 111.898438 255.328125 110.820312 256.828125 109.828125 258.382812 L 98.1875 258.058594 C 97.617188 258.070312 96.914062 258.4375 96.65625 259.054688 C 96.019531 260.683594 95.511719 262.359375 95.003906 264.238281 C 94.839844 264.898438 95.132812 265.601562 95.640625 265.945312 L 105.269531 272.535156 C 105.140625 273.441406 105.109375 274.371094 105.109375 275.3125 C 105.109375 276.25 105.140625 277.15625 105.269531 278.097656 L 95.640625 284.644531 C 95.132812 285.042969 94.839844 285.722656 95.003906 286.371094 C 95.511719 288.230469 96.019531 289.925781 96.65625 291.546875 C 96.914062 292.183594 97.617188 292.636719 98.1875 292.574219 L 109.828125 292.238281 C 110.820312 293.804688 111.898438 295.292969 113.109375 296.71875 L 109.15625 307.726562 C 108.929688 308.363281 109.15625 309.078125 109.664062 309.5 C 110.9375 310.546875 112.375 311.582031 114.070312 312.652344 C 114.644531 313.03125 115.375 312.988281 115.917969 312.578125 L 125.167969 305.460938 C 126.886719 306.203125 128.636719 306.808594 130.425781 307.230469 L 133.675781 318.335938 C 133.871094 318.984375 134.476562 319.449219 135.113281 319.492188 L 135.847656 319.542969 C 136.515625 319.589844 137.152344 319.609375 137.855469 319.609375 C 138.523438 319.609375 139.195312 319.589844 139.832031 319.542969 L 140.566406 319.492188 C 141.234375 319.449219 141.808594 318.984375 142 318.335938 L 145.25 307.230469 C 147.042969 306.808594 148.792969 306.203125 150.542969 305.460938 L 159.792969 312.578125 C 160.300781 312.988281 161.003906 313 161.640625 312.652344 C 163.304688 311.582031 164.738281 310.546875 166.011719 309.5 C 166.550781 309.078125 166.746094 308.363281 166.488281 307.726562 L 162.601562 296.71875 C 163.808594 295.292969 164.902344 293.804688 165.851562 292.238281 L 177.523438 292.574219 C 178.160156 292.617188 178.796875 292.183594 179.023438 291.546875 C 179.691406 289.925781 180.199219 288.230469 180.675781 286.371094 C 180.835938 285.722656 180.589844 285.042969 180.070312 284.644531 L 170.472656 278.097656 " fill-opacity="1" fill-rule="nonzero"/><g clip-path="url(#37ef966780)"><path fill="#d73f23" d="M 53.65625 110.707031 C 43.710938 107.835938 37.976562 97.441406 40.847656 87.492188 C 43.71875 77.542969 54.101562 71.800781 64.046875 74.675781 C 73.988281 77.546875 79.722656 87.941406 76.851562 97.890625 C 73.980469 107.839844 63.597656 113.582031 53.65625 110.707031 Z M 96.570312 112.285156 C 97.835938 109.835938 98.882812 107.230469 99.675781 104.484375 C 100.695312 100.9375 101.238281 97.371094 101.335938 93.847656 L 113.65625 89.191406 L 108.554688 68.554688 L 94.65625 69.796875 C 91.246094 64.453125 86.644531 59.859375 81.09375 56.449219 L 83.226562 43.441406 L 62.816406 37.546875 L 56.945312 50.199219 C 50.460938 50.488281 44.203125 52.273438 38.617188 55.300781 L 28.417969 46.941406 L 13.113281 61.679688 L 21.128906 73.097656 C 19.867188 75.546875 18.820312 78.148438 18.023438 80.898438 C 17.003906 84.441406 16.464844 88.011719 16.363281 91.535156 L 4.042969 96.191406 L 9.144531 116.828125 L 23.046875 115.585938 C 26.453125 120.925781 31.054688 125.523438 36.605469 128.933594 L 34.476562 141.941406 L 54.886719 147.835938 L 60.753906 135.183594 C 67.238281 134.890625 73.496094 133.109375 79.082031 130.082031 L 89.285156 138.441406 L 104.589844 123.703125 L 96.570312 112.285156 " fill-opacity="1" fill-rule="nonzero"/></g><g clip-path="url(#67248cccd6)"><path fill="#338b8c" d="M 138.027344 124.335938 C 131.421875 126.105469 124.636719 122.183594 122.863281 115.574219 C 121.09375 108.964844 125.015625 102.167969 131.621094 100.394531 C 138.222656 98.625 145.011719 102.546875 146.785156 109.15625 C 148.554688 115.765625 144.632812 122.5625 138.027344 124.335938 Z M 162.847656 110.566406 C 162.730469 108.75 162.433594 106.917969 161.945312 105.09375 C 161.316406 102.738281 160.402344 100.53125 159.257812 98.503906 L 164.640625 91.664062 L 154.714844 81.726562 L 147.273438 87.179688 C 143.523438 85.320312 139.351562 84.292969 135.046875 84.261719 L 131.816406 76.171875 L 118.257812 79.808594 L 119.253906 88.972656 C 115.683594 91.351562 112.75 94.5 110.621094 98.121094 L 102 96.875 L 98.367188 110.445312 L 106.800781 114.164062 C 106.917969 115.980469 107.214844 117.8125 107.703125 119.640625 C 108.332031 121.992188 109.246094 124.195312 110.390625 126.222656 L 105.007812 133.066406 L 114.933594 143 L 122.375 137.550781 C 126.125 139.410156 130.296875 140.4375 134.597656 140.46875 L 137.832031 148.558594 L 151.390625 144.921875 L 150.394531 135.757812 C 153.964844 133.378906 156.898438 130.230469 159.023438 126.609375 L 167.648438 127.855469 L 171.28125 114.285156 L 162.847656 110.566406 " fill-opacity="1" fill-rule="nonzero"/></g><g clip-path="url(#f43485c328)"><path fill="#e0a11b" d="M 74 189.628906 C 67.621094 183.636719 67.300781 173.601562 73.289062 167.214844 C 79.28125 160.828125 89.308594 160.511719 95.6875 166.503906 C 102.070312 172.496094 102.386719 182.535156 96.398438 188.917969 C 90.410156 195.304688 80.382812 195.621094 74 189.628906 Z M 105.707031 207.351562 C 107.601562 205.996094 109.390625 204.441406 111.042969 202.675781 C 113.179688 200.402344 114.957031 197.925781 116.386719 195.308594 L 127.457031 196.550781 L 131.554688 179.046875 L 120.609375 174.625 C 120.101562 169.292969 118.402344 164.058594 115.535156 159.351562 L 122.144531 150.378906 L 109.046875 138.074219 L 99.761719 145.339844 C 94.765625 143.058594 89.367188 141.992188 83.996094 142.117188 L 79.535156 131.894531 L 62.335938 137.09375 L 63.980469 148.78125 C 62.089844 150.136719 60.296875 151.695312 58.644531 153.457031 C 56.511719 155.730469 54.730469 158.210938 53.300781 160.824219 L 42.230469 159.582031 L 38.136719 177.085938 L 49.078125 181.507812 C 49.585938 186.84375 51.285156 192.078125 54.152344 196.78125 L 47.542969 205.757812 L 60.640625 218.058594 L 69.929688 210.792969 C 74.921875 213.074219 80.320312 214.140625 85.691406 214.015625 L 90.15625 224.238281 L 107.351562 219.039062 L 105.707031 207.351562 " fill-opacity="1" fill-rule="nonzero"/></g><g clip-path="url(#5ec232ee53)"><path fill="#4a3529" d="M 125.589844 63.382812 C 121.957031 63.382812 119.011719 60.433594 119.011719 56.796875 C 119.011719 53.160156 121.957031 50.210938 125.589844 50.210938 C 129.226562 50.210938 132.171875 53.160156 132.171875 56.796875 C 132.171875 60.433594 129.226562 63.382812 125.589844 63.382812 Z M 140.222656 59.730469 C 140.414062 58.78125 140.515625 57.800781 140.515625 56.796875 C 140.515625 55.5 140.347656 54.246094 140.039062 53.046875 L 143.742188 50.273438 L 140.011719 43.808594 L 135.445312 45.582031 C 133.773438 44.113281 131.773438 43.011719 129.570312 42.402344 L 129.023438 37.804688 L 121.5625 37.804688 L 120.8125 42.644531 C 118.652344 43.375 116.714844 44.589844 115.125 46.152344 L 110.871094 44.324219 L 107.140625 50.792969 L 110.957031 53.863281 C 110.769531 54.8125 110.667969 55.792969 110.667969 56.796875 C 110.667969 58.089844 110.835938 59.347656 111.144531 60.546875 L 107.441406 63.320312 L 111.167969 69.785156 L 115.738281 68.011719 C 117.40625 69.480469 119.40625 70.582031 121.613281 71.191406 L 122.160156 75.789062 L 129.621094 75.789062 L 130.367188 70.949219 C 132.527344 70.21875 134.464844 69.007812 136.054688 67.441406 L 140.3125 69.265625 L 144.042969 62.800781 L 140.222656 59.730469 " fill-opacity="1" fill-rule="nonzero"/></g></svg>