<svg xmlns="http://www.w3.org/2000/svg" xmlns:xlink="http://www.w3.org/1999/xlink" width="500" zoomAndPan="magnify" viewBox="0 0 375 149.999998" height="200" preserveAspectRatio="xMidYMid meet" version="1.2"><defs><clipPath id="1c39b018be"><path d="M 281.132812 1.785156 L 333 1.785156 L 333 148 L 281.132812 148 Z M 281.132812 1.785156 "/></clipPath><clipPath id="7ba07f5ec0"><path d="M 334 1.382812 L 375 1.382812 L 375 127.382812 L 334 127.382812 Z M 334 1.382812 "/></clipPath></defs><g id="6848778101"><g clip-rule="nonzero" clip-path="url(#1c39b018be)"><path style=" stroke:none;fill-rule:evenodd;fill:#33363c;fill-opacity:1;" d="M 332.132812 7.636719 C 332.132812 4.175781 329.324219 1.367188 325.863281 1.367188 L 321.683594 1.367188 C 308.992188 1.367188 298.703125 11.660156 298.703125 24.351562 L 298.703125 53.601562 C 298.703125 56.890625 297.15625 59.984375 294.523438 61.957031 L 284.496094 69.480469 C 282.992188 70.609375 282.074219 72.355469 281.996094 74.234375 C 281.917969 76.113281 282.6875 77.929688 284.09375 79.179688 L 295.195312 89.046875 C 297.425781 91.027344 298.703125 93.871094 298.703125 96.855469 L 298.703125 124.636719 C 298.703125 137.328125 308.992188 147.617188 321.683594 147.617188 L 325.863281 147.617188 C 329.324219 147.617188 332.132812 144.8125 332.132812 141.351562 C 332.132812 137.890625 329.324219 135.082031 325.863281 135.082031 L 321.683594 135.082031 C 315.914062 135.082031 311.238281 130.40625 311.238281 124.636719 L 311.238281 96.855469 C 311.238281 90.289062 308.429688 84.035156 303.523438 79.675781 L 298.15625 74.90625 L 302.046875 71.988281 C 307.832031 67.648438 311.238281 60.835938 311.238281 53.601562 L 311.238281 24.351562 C 311.238281 18.582031 315.914062 13.90625 321.683594 13.90625 L 325.863281 13.90625 C 329.324219 13.90625 332.132812 11.097656 332.132812 7.636719 Z M 332.132812 7.636719 "/></g><path style=" stroke:none;fill-rule:nonzero;fill:#3498db;fill-opacity:1;" d="M 31.519531 111.851562 C 46.953125 103.875 64.960938 102.035156 82.074219 101.617188 C 100.5 101.144531 118.875 102.351562 137.195312 104.03125 C 155.730469 105.761719 174.207031 107.914062 192.792969 109.226562 C 202.03125 109.859375 211.324219 110.226562 220.617188 110.277344 C 229.328125 110.332031 238.148438 110.382812 246.863281 109.332031 C 255.632812 108.285156 264.398438 105.816406 271.117188 99.777344 C 276.996094 94.476562 281.25 86.390625 279.621094 78.359375 C 278.941406 75 273.691406 75.789062 273.691406 79.148438 C 273.742188 86.285156 270.960938 92.324219 265.449219 96.839844 C 259.253906 101.929688 250.957031 103.714844 243.242188 104.660156 C 225.707031 106.707031 207.859375 106.027344 190.273438 104.820312 C 154.574219 102.296875 118.980469 96.472656 83.125 97.730469 C 64.855469 98.308594 46.378906 100.410156 30.46875 110.066406 C 29.316406 110.75 30.3125 112.484375 31.519531 111.851562 Z M 31.519531 111.851562 "/><path style=" stroke:none;fill-rule:nonzero;fill:#3498db;fill-opacity:1;" d="M 38.449219 100.199219 C 54.09375 94.476562 70.261719 93.113281 86.800781 93.007812 C 87.691406 93.007812 88.007812 91.484375 87.011719 91.378906 C 70.472656 88.910156 53.253906 92.847656 38.082031 99.515625 C 37.765625 99.671875 38.03125 100.355469 38.449219 100.199219 Z M 38.449219 100.199219 "/><path style=" stroke:none;fill-rule:nonzero;fill:#3498db;fill-opacity:1;" d="M 264.976562 109.386719 C 271.011719 108.546875 276.578125 105.660156 280.777344 101.300781 C 282.929688 99.097656 284.765625 96.578125 286.027344 93.792969 C 287.078125 91.589844 289.019531 87.652344 287.445312 85.394531 C 286.710938 84.34375 285.449219 84.1875 284.503906 85.027344 C 282.71875 86.550781 282.980469 90.015625 282.246094 92.21875 C 281.40625 94.738281 280.199219 97.101562 278.675781 99.253906 C 275.265625 103.925781 270.382812 107.339844 264.816406 108.859375 C 264.449219 108.914062 264.609375 109.4375 264.976562 109.386719 Z M 264.976562 109.386719 "/><g style="fill:#33363c;fill-opacity:1;"><g transform="translate(-4.766865, 86.665846)"><path style="stroke:none" d="M 5.09375 -2.125 L 5.09375 -61.890625 L 5.6875 -62.484375 L 10.703125 -62.484375 C 13.296875 -62.484375 15.160156 -61.890625 16.296875 -60.703125 C 17.429688 -59.515625 18 -57.445312 18 -54.5 L 18 -40.328125 C 20.9375 -42.242188 24.21875 -43.203125 27.84375 -43.203125 C 32.820312 -43.203125 36.570312 -41.191406 39.09375 -37.171875 C 41.613281 -33.160156 42.875 -27.757812 42.875 -20.96875 C 42.875 -17.738281 42.363281 -14.796875 41.34375 -12.140625 C 40.320312 -9.484375 38.90625 -7.191406 37.09375 -5.265625 C 35.28125 -3.335938 33.070312 -1.847656 30.46875 -0.796875 C 27.875 0.242188 25.019531 0.765625 21.90625 0.765625 C 15.445312 0.765625 9.84375 -0.195312 5.09375 -2.125 Z M 23.859375 -32.59375 C 21.648438 -32.59375 19.695312 -31.660156 18 -29.796875 L 18 -9.078125 C 18.5625 -8.960938 19.164062 -8.878906 19.8125 -8.828125 C 20.46875 -8.773438 21.164062 -8.75 21.90625 -8.75 C 26.820312 -8.75 29.28125 -13.019531 29.28125 -21.5625 C 29.28125 -28.863281 27.472656 -32.539062 23.859375 -32.59375 Z M 23.859375 -32.59375 "/></g></g><g style="fill:#33363c;fill-opacity:1;"><g transform="translate(40.642288, 86.665846)"><path style="stroke:none" d="M 21.640625 -9.671875 L 23.9375 -9.671875 C 24.613281 -7.804688 24.953125 -5.9375 24.953125 -4.0625 C 24.953125 -2.195312 24.867188 -0.984375 24.703125 -0.421875 C 21.304688 0.140625 18.28125 0.421875 15.625 0.421875 C 11.769531 0.421875 9.035156 -0.523438 7.421875 -2.421875 C 5.816406 -4.316406 5.015625 -7.300781 5.015625 -11.375 L 5.015625 -61.890625 L 5.515625 -62.484375 L 10.703125 -62.484375 C 13.359375 -62.484375 15.222656 -61.890625 16.296875 -60.703125 C 17.367188 -59.515625 17.90625 -57.445312 17.90625 -54.5 L 17.90625 -13.671875 C 17.90625 -11.003906 19.148438 -9.671875 21.640625 -9.671875 Z M 21.640625 -9.671875 "/></g></g><g style="fill:#33363c;fill-opacity:1;"><g transform="translate(66.359919, 86.665846)"><path style="stroke:none" d="M 38.109375 -16.890625 L 15.953125 -16.890625 C 16.066406 -14.347656 16.71875 -12.367188 17.90625 -10.953125 C 19.09375 -9.535156 21.046875 -8.828125 23.765625 -8.828125 C 25.128906 -8.828125 26.703125 -9.023438 28.484375 -9.421875 C 30.265625 -9.816406 32.316406 -10.46875 34.640625 -11.375 C 36.503906 -9.445312 37.660156 -6.84375 38.109375 -3.5625 C 33.585938 -0.34375 28.046875 1.265625 21.484375 1.265625 C 17.910156 1.265625 14.921875 0.703125 12.515625 -0.421875 C 10.109375 -1.554688 8.15625 -3.140625 6.65625 -5.171875 C 5.164062 -7.210938 4.109375 -9.617188 3.484375 -12.390625 C 2.859375 -15.160156 2.546875 -18.191406 2.546875 -21.484375 C 2.546875 -24.648438 2.925781 -27.578125 3.6875 -30.265625 C 4.457031 -32.953125 5.617188 -35.285156 7.171875 -37.265625 C 8.722656 -39.242188 10.703125 -40.800781 13.109375 -41.9375 C 15.515625 -43.070312 18.332031 -43.640625 21.5625 -43.640625 C 24.28125 -43.640625 26.726562 -43.1875 28.90625 -42.28125 C 31.082031 -41.375 32.929688 -40.125 34.453125 -38.53125 C 35.984375 -36.945312 37.160156 -35.050781 37.984375 -32.84375 C 38.804688 -30.644531 39.21875 -28.242188 39.21875 -25.640625 C 39.21875 -22.179688 38.847656 -19.265625 38.109375 -16.890625 Z M 15.875 -26.0625 L 27.078125 -26.0625 L 27.078125 -27 C 27.078125 -29.09375 26.609375 -30.816406 25.671875 -32.171875 C 24.742188 -33.523438 23.347656 -34.203125 21.484375 -34.203125 C 19.671875 -34.203125 18.320312 -33.566406 17.4375 -32.296875 C 16.5625 -31.023438 16.039062 -28.945312 15.875 -26.0625 Z M 15.875 -26.0625 "/></g></g><g style="fill:#3498db;fill-opacity:1;"><g transform="translate(108.546307, 86.665846)"><path style="stroke:none" d="M 37.609375 -16.890625 L 39.734375 -10.703125 C 40.859375 -6.960938 42.210938 -4.554688 43.796875 -3.484375 C 41.304688 -0.710938 38.335938 0.671875 34.890625 0.671875 C 33.023438 0.671875 31.609375 0.234375 30.640625 -0.640625 C 29.679688 -1.515625 28.832031 -3.054688 28.09375 -5.265625 L 25.546875 -12.5625 C 24.984375 -14.320312 24.332031 -15.5 23.59375 -16.09375 C 22.863281 -16.6875 21.875 -16.984375 20.625 -16.984375 C 19.382812 -16.984375 18.507812 -16.953125 18 -16.890625 L 18 0 C 16.132812 0.34375 13.984375 0.515625 11.546875 0.515625 C 9.109375 0.515625 6.957031 0.34375 5.09375 0 L 5.09375 -61.890625 L 5.6875 -62.484375 L 10.78125 -62.484375 C 13.4375 -62.484375 15.300781 -61.890625 16.375 -60.703125 C 17.457031 -59.515625 18 -57.445312 18 -54.5 L 18 -27.84375 L 19.359375 -27.84375 C 20.378906 -27.84375 21.171875 -28.351562 21.734375 -29.375 L 26.140625 -37.859375 C 27.722656 -41.085938 30.210938 -42.703125 33.609375 -42.703125 C 35.253906 -42.703125 37.71875 -42.644531 41 -42.53125 L 41.515625 -41.84375 L 34.96875 -29.203125 C 33.84375 -27.046875 32.398438 -25.375 30.640625 -24.1875 C 34.035156 -22.945312 36.359375 -20.515625 37.609375 -16.890625 Z M 37.609375 -16.890625 "/></g></g><g style="fill:#3498db;fill-opacity:1;"><g transform="translate(151.578771, 86.665846)"><path style="stroke:none" d="M 35.65625 -38.625 C 39.726562 -34.550781 41.765625 -28.722656 41.765625 -21.140625 C 41.765625 -17.742188 41.328125 -14.65625 40.453125 -11.875 C 39.578125 -9.101562 38.300781 -6.742188 36.625 -4.796875 C 34.957031 -2.847656 32.90625 -1.347656 30.46875 -0.296875 C 28.039062 0.742188 25.242188 1.265625 22.078125 1.265625 C 18.898438 1.265625 16.109375 0.726562 13.703125 -0.34375 C 11.304688 -1.414062 9.269531 -2.925781 7.59375 -4.875 C 5.925781 -6.832031 4.664062 -9.195312 3.8125 -11.96875 C 2.96875 -14.738281 2.546875 -17.796875 2.546875 -21.140625 C 2.546875 -24.535156 2.96875 -27.601562 3.8125 -30.34375 C 4.664062 -33.09375 5.910156 -35.457031 7.546875 -37.4375 C 9.191406 -39.414062 11.226562 -40.941406 13.65625 -42.015625 C 16.09375 -43.097656 18.898438 -43.640625 22.078125 -43.640625 C 27.671875 -43.640625 32.195312 -41.96875 35.65625 -38.625 Z M 22.15625 -33.703125 C 20.90625 -33.703125 19.898438 -33.40625 19.140625 -32.8125 C 18.378906 -32.21875 17.769531 -31.410156 17.3125 -30.390625 C 16.863281 -29.367188 16.550781 -28.191406 16.375 -26.859375 C 16.207031 -25.535156 16.125 -24.109375 16.125 -22.578125 C 16.125 -20.203125 16.191406 -18.148438 16.328125 -16.421875 C 16.472656 -14.703125 16.757812 -13.257812 17.1875 -12.09375 C 17.613281 -10.9375 18.207031 -10.070312 18.96875 -9.5 C 19.738281 -8.9375 20.742188 -8.65625 21.984375 -8.65625 C 24.472656 -8.65625 26.113281 -9.742188 26.90625 -11.921875 C 27.695312 -14.109375 28.09375 -17.207031 28.09375 -21.21875 C 28.09375 -25.289062 27.695312 -28.390625 26.90625 -30.515625 C 26.113281 -32.640625 24.53125 -33.703125 22.15625 -33.703125 Z M 22.15625 -33.703125 "/></g></g><g style="fill:#33363c;fill-opacity:1;"><g transform="translate(195.800587, 86.665846)"><path style="stroke:none" d="M 29.875 -42.4375 C 30.21875 -40.851562 30.390625 -39.269531 30.390625 -37.6875 C 30.390625 -36.101562 30.21875 -34.546875 29.875 -33.015625 L 19.78125 -33.1875 L 19.78125 -13.671875 C 19.78125 -11.003906 21.023438 -9.671875 23.515625 -9.671875 L 28.265625 -9.671875 C 29.003906 -7.640625 29.375 -5.773438 29.375 -4.078125 C 29.375 -2.378906 29.257812 -1.160156 29.03125 -0.421875 C 24.84375 0.140625 20.992188 0.421875 17.484375 0.421875 C 10.359375 0.421875 6.796875 -3.507812 6.796875 -11.375 L 6.796875 -33.109375 L 0.171875 -33.015625 C -0.222656 -34.429688 -0.421875 -35.972656 -0.421875 -37.640625 C -0.421875 -39.316406 -0.222656 -40.914062 0.171875 -42.4375 L 6.796875 -42.28125 L 6.796875 -47.203125 C 6.796875 -50.085938 7.347656 -52.132812 8.453125 -53.34375 C 9.554688 -54.5625 11.40625 -55.171875 14 -55.171875 L 19.1875 -55.171875 L 19.78125 -54.578125 L 19.78125 -42.28125 Z M 29.875 -42.4375 "/></g></g><g style="fill:#33363c;fill-opacity:1;"><g transform="translate(227.629434, 86.665846)"><path style="stroke:none" d="M 41.09375 -6.109375 C 40.800781 -4.921875 40.257812 -3.644531 39.46875 -2.28125 C 38.675781 -0.925781 37.859375 0.0546875 37.015625 0.671875 C 33.046875 0.566406 29.988281 -0.925781 27.84375 -3.8125 C 24.164062 -0.425781 20.175781 1.265625 15.875 1.265625 C 13.664062 1.265625 11.738281 0.910156 10.09375 0.203125 C 8.457031 -0.492188 7.070312 -1.4375 5.9375 -2.625 C 4.8125 -3.820312 3.960938 -5.195312 3.390625 -6.75 C 2.828125 -8.300781 2.546875 -9.925781 2.546875 -11.625 C 2.546875 -14.0625 2.984375 -16.195312 3.859375 -18.03125 C 4.734375 -19.875 5.9375 -21.40625 7.46875 -22.625 C 9 -23.84375 10.78125 -24.757812 12.8125 -25.375 C 14.851562 -26 17.035156 -26.3125 19.359375 -26.3125 C 20.660156 -26.3125 21.804688 -26.296875 22.796875 -26.265625 C 23.785156 -26.242188 24.644531 -26.203125 25.375 -26.140625 L 25.375 -27.765625 C 25.375 -31.328125 23.535156 -33.109375 19.859375 -33.109375 C 17.484375 -33.109375 13.328125 -32.203125 7.390625 -30.390625 C 5.691406 -32.367188 4.613281 -35.453125 4.15625 -39.640625 C 5.519531 -40.148438 7.035156 -40.628906 8.703125 -41.078125 C 10.367188 -41.535156 12.078125 -41.929688 13.828125 -42.265625 C 15.585938 -42.609375 17.316406 -42.878906 19.015625 -43.078125 C 20.710938 -43.273438 22.238281 -43.375 23.59375 -43.375 C 25.582031 -43.375 27.492188 -43.09375 29.328125 -42.53125 C 31.171875 -41.96875 32.785156 -41.101562 34.171875 -39.9375 C 35.554688 -38.78125 36.65625 -37.28125 37.46875 -35.4375 C 38.289062 -33.601562 38.703125 -31.410156 38.703125 -28.859375 L 38.703125 -11.625 C 38.703125 -9.019531 39.5 -7.179688 41.09375 -6.109375 Z M 15.453125 -12.484375 C 15.453125 -9.816406 16.976562 -8.484375 20.03125 -8.484375 C 21.613281 -8.484375 23.394531 -9.304688 25.375 -10.953125 L 25.375 -17.734375 C 24.25 -17.796875 23.300781 -17.835938 22.53125 -17.859375 C 21.769531 -17.890625 21.191406 -17.90625 20.796875 -17.90625 C 17.234375 -17.90625 15.453125 -16.097656 15.453125 -12.484375 Z M 15.453125 -12.484375 "/></g></g><g clip-rule="nonzero" clip-path="url(#7ba07f5ec0)"><path style=" stroke:none;fill-rule:evenodd;fill:#3498db;fill-opacity:1;" d="M 334.449219 6.421875 C 334.449219 3.441406 336.867188 1.023438 339.851562 1.023438 L 343.449219 1.023438 C 354.386719 1.023438 363.25 9.886719 363.25 20.824219 L 363.25 46.023438 C 363.25 48.855469 364.582031 51.523438 366.851562 53.222656 L 375.488281 59.703125 C 376.785156 60.675781 377.578125 62.179688 377.644531 63.800781 C 377.710938 65.417969 377.046875 66.984375 375.835938 68.058594 L 366.273438 76.5625 C 365.207031 77.507812 364.394531 78.679688 363.878906 79.976562 C 362.785156 82.75 359.644531 84.109375 356.871094 83.015625 C 354.097656 81.917969 352.738281 78.78125 353.835938 76.007812 C 354.964844 73.15625 356.753906 70.570312 359.097656 68.488281 L 363.722656 64.378906 L 360.371094 61.863281 C 355.382812 58.125 352.449219 52.253906 352.449219 46.023438 L 352.449219 20.824219 C 352.449219 15.851562 348.421875 11.824219 343.449219 11.824219 L 339.851562 11.824219 C 336.867188 11.824219 334.449219 9.40625 334.449219 6.421875 Z M 357.851562 101.824219 C 360.832031 101.824219 363.25 104.242188 363.25 107.222656 C 363.25 118.160156 354.386719 127.023438 343.449219 127.023438 L 339.851562 127.023438 C 336.867188 127.023438 334.449219 124.605469 334.449219 121.625 C 334.449219 118.640625 336.867188 116.222656 339.851562 116.222656 L 343.449219 116.222656 C 348.421875 116.222656 352.449219 112.195312 352.449219 107.222656 C 352.449219 104.242188 354.867188 101.824219 357.851562 101.824219 Z M 357.851562 101.824219 "/></g><g style="fill:#33363c;fill-opacity:1;"><g transform="translate(42.156157, 142.222213)"><path style="stroke:none" d="M 19.09375 -20.6875 C 21.269531 -18.5 22.359375 -15.375 22.359375 -11.3125 C 22.359375 -9.5 22.125 -7.847656 21.65625 -6.359375 C 21.1875 -4.878906 20.503906 -3.613281 19.609375 -2.5625 C 18.710938 -1.519531 17.613281 -0.71875 16.3125 -0.15625 C 15.007812 0.40625 13.507812 0.6875 11.8125 0.6875 C 10.113281 0.6875 8.617188 0.398438 7.328125 -0.171875 C 6.046875 -0.753906 4.957031 -1.566406 4.0625 -2.609375 C 3.175781 -3.660156 2.503906 -4.925781 2.046875 -6.40625 C 1.585938 -7.894531 1.359375 -9.53125 1.359375 -11.3125 C 1.359375 -13.132812 1.585938 -14.78125 2.046875 -16.25 C 2.503906 -17.71875 3.171875 -18.984375 4.046875 -20.046875 C 4.921875 -21.109375 6.007812 -21.925781 7.3125 -22.5 C 8.613281 -23.070312 10.113281 -23.359375 11.8125 -23.359375 C 14.8125 -23.359375 17.238281 -22.46875 19.09375 -20.6875 Z M 11.859375 -18.046875 C 11.191406 -18.046875 10.65625 -17.882812 10.25 -17.5625 C 9.84375 -17.25 9.515625 -16.816406 9.265625 -16.265625 C 9.023438 -15.722656 8.859375 -15.09375 8.765625 -14.375 C 8.679688 -13.664062 8.640625 -12.90625 8.640625 -12.09375 C 8.640625 -10.820312 8.675781 -9.722656 8.75 -8.796875 C 8.820312 -7.867188 8.972656 -7.09375 9.203125 -6.46875 C 9.429688 -5.851562 9.75 -5.394531 10.15625 -5.09375 C 10.5625 -4.789062 11.097656 -4.640625 11.765625 -4.640625 C 13.097656 -4.640625 13.976562 -5.222656 14.40625 -6.390625 C 14.832031 -7.554688 15.046875 -9.210938 15.046875 -11.359375 C 15.046875 -13.546875 14.832031 -15.207031 14.40625 -16.34375 C 13.976562 -17.476562 13.128906 -18.046875 11.859375 -18.046875 Z M 11.859375 -18.046875 "/></g></g><g style="fill:#33363c;fill-opacity:1;"><g transform="translate(65.884369, 142.222213)"><path style="stroke:none" d="M 22.265625 -15 L 22.265625 -5.6875 C 22.265625 -3.6875 22.628906 -2.1875 23.359375 -1.1875 C 22.210938 -0.15625 20.835938 0.359375 19.234375 0.359375 C 17.648438 0.359375 16.570312 0 16 -0.71875 C 15.425781 -1.445312 15.140625 -2.554688 15.140625 -4.046875 L 15.140625 -13.734375 C 15.140625 -14.753906 15 -15.507812 14.71875 -16 C 14.445312 -16.488281 13.921875 -16.734375 13.140625 -16.734375 C 12.679688 -16.734375 12.164062 -16.609375 11.59375 -16.359375 C 11.019531 -16.117188 10.425781 -15.726562 9.8125 -15.1875 L 9.8125 0 C 9.300781 0.09375 8.742188 0.160156 8.140625 0.203125 C 7.535156 0.242188 6.910156 0.265625 6.265625 0.265625 C 5.628906 0.265625 5.007812 0.242188 4.40625 0.203125 C 3.800781 0.160156 3.242188 0.09375 2.734375 0 L 2.734375 -22.6875 L 3.046875 -23 L 5.734375 -23 C 7.578125 -23 8.816406 -22.085938 9.453125 -20.265625 C 11.578125 -22.148438 13.679688 -23.09375 15.765625 -23.09375 C 17.890625 -23.09375 19.503906 -22.359375 20.609375 -20.890625 C 21.710938 -19.421875 22.265625 -17.457031 22.265625 -15 Z M 22.265625 -15 "/></g></g><g style="fill:#33363c;fill-opacity:1;"><g transform="translate(90.748983, 142.222213)"><path style="stroke:none" d="M 11.59375 -5.1875 L 12.8125 -5.1875 C 13.175781 -4.1875 13.359375 -3.1875 13.359375 -2.1875 C 13.359375 -1.1875 13.316406 -0.535156 13.234375 -0.234375 C 11.410156 0.078125 9.785156 0.234375 8.359375 0.234375 C 6.296875 0.234375 4.832031 -0.269531 3.96875 -1.28125 C 3.113281 -2.300781 2.6875 -3.90625 2.6875 -6.09375 L 2.6875 -33.140625 L 2.953125 -33.453125 L 5.734375 -33.453125 C 7.148438 -33.453125 8.144531 -33.132812 8.71875 -32.5 C 9.300781 -31.863281 9.59375 -30.757812 9.59375 -29.1875 L 9.59375 -7.3125 C 9.59375 -5.894531 10.257812 -5.1875 11.59375 -5.1875 Z M 11.59375 -5.1875 "/></g></g><g style="fill:#33363c;fill-opacity:1;"><g transform="translate(104.976816, 142.222213)"><path style="stroke:none" d="M 10.90625 -17.453125 L 10.90625 0 C 10.394531 0.09375 9.832031 0.160156 9.21875 0.203125 C 8.613281 0.242188 7.992188 0.265625 7.359375 0.265625 C 6.722656 0.265625 6.09375 0.242188 5.46875 0.203125 C 4.851562 0.160156 4.285156 0.09375 3.765625 0 L 3.765625 -15.046875 C 3.765625 -16.804688 3.054688 -17.6875 1.640625 -17.6875 L 0.953125 -17.6875 C 0.773438 -18.257812 0.6875 -19.0625 0.6875 -20.09375 C 0.6875 -21.09375 0.773438 -21.941406 0.953125 -22.640625 C 1.742188 -22.691406 2.472656 -22.738281 3.140625 -22.78125 C 3.804688 -22.832031 4.410156 -22.859375 4.953125 -22.859375 L 5.953125 -22.859375 C 7.492188 -22.859375 8.703125 -22.375 9.578125 -21.40625 C 10.460938 -20.4375 10.90625 -19.117188 10.90625 -17.453125 Z M 2.953125 -31.8125 C 3.828125 -32.300781 4.960938 -32.546875 6.359375 -32.546875 C 7.785156 -32.546875 8.894531 -32.300781 9.6875 -31.8125 C 10.050781 -31 10.234375 -30.125 10.234375 -29.1875 C 10.234375 -28.238281 10.050781 -27.359375 9.6875 -26.546875 C 8.800781 -26.085938 7.648438 -25.859375 6.234375 -25.859375 C 4.804688 -25.859375 3.710938 -26.085938 2.953125 -26.546875 C 2.585938 -27.359375 2.40625 -28.238281 2.40625 -29.1875 C 2.40625 -30.125 2.585938 -31 2.953125 -31.8125 Z M 2.953125 -31.8125 "/></g></g><g style="fill:#33363c;fill-opacity:1;"><g transform="translate(118.522802, 142.222213)"><path style="stroke:none" d="M 22.265625 -15 L 22.265625 -5.6875 C 22.265625 -3.6875 22.628906 -2.1875 23.359375 -1.1875 C 22.210938 -0.15625 20.835938 0.359375 19.234375 0.359375 C 17.648438 0.359375 16.570312 0 16 -0.71875 C 15.425781 -1.445312 15.140625 -2.554688 15.140625 -4.046875 L 15.140625 -13.734375 C 15.140625 -14.753906 15 -15.507812 14.71875 -16 C 14.445312 -16.488281 13.921875 -16.734375 13.140625 -16.734375 C 12.679688 -16.734375 12.164062 -16.609375 11.59375 -16.359375 C 11.019531 -16.117188 10.425781 -15.726562 9.8125 -15.1875 L 9.8125 0 C 9.300781 0.09375 8.742188 0.160156 8.140625 0.203125 C 7.535156 0.242188 6.910156 0.265625 6.265625 0.265625 C 5.628906 0.265625 5.007812 0.242188 4.40625 0.203125 C 3.800781 0.160156 3.242188 0.09375 2.734375 0 L 2.734375 -22.6875 L 3.046875 -23 L 5.734375 -23 C 7.578125 -23 8.816406 -22.085938 9.453125 -20.265625 C 11.578125 -22.148438 13.679688 -23.09375 15.765625 -23.09375 C 17.890625 -23.09375 19.503906 -22.359375 20.609375 -20.890625 C 21.710938 -19.421875 22.265625 -17.457031 22.265625 -15 Z M 22.265625 -15 "/></g></g><g style="fill:#33363c;fill-opacity:1;"><g transform="translate(143.387415, 142.222213)"><path style="stroke:none" d="M 20.40625 -9.046875 L 8.546875 -9.046875 C 8.609375 -7.679688 8.957031 -6.617188 9.59375 -5.859375 C 10.226562 -5.109375 11.273438 -4.734375 12.734375 -4.734375 C 13.453125 -4.734375 14.289062 -4.835938 15.25 -5.046875 C 16.207031 -5.253906 17.304688 -5.601562 18.546875 -6.09375 C 19.546875 -5.0625 20.164062 -3.664062 20.40625 -1.90625 C 17.976562 -0.175781 15.007812 0.6875 11.5 0.6875 C 9.59375 0.6875 7.992188 0.382812 6.703125 -0.21875 C 5.410156 -0.832031 4.363281 -1.679688 3.5625 -2.765625 C 2.757812 -3.859375 2.191406 -5.144531 1.859375 -6.625 C 1.523438 -8.113281 1.359375 -9.738281 1.359375 -11.5 C 1.359375 -13.195312 1.5625 -14.765625 1.96875 -16.203125 C 2.382812 -17.640625 3.007812 -18.890625 3.84375 -19.953125 C 4.675781 -21.015625 5.734375 -21.847656 7.015625 -22.453125 C 8.304688 -23.054688 9.816406 -23.359375 11.546875 -23.359375 C 13.003906 -23.359375 14.316406 -23.113281 15.484375 -22.625 C 16.648438 -22.144531 17.640625 -21.476562 18.453125 -20.625 C 19.273438 -19.78125 19.90625 -18.765625 20.34375 -17.578125 C 20.78125 -16.398438 21 -15.117188 21 -13.734375 C 21 -11.878906 20.800781 -10.316406 20.40625 -9.046875 Z M 8.5 -13.953125 L 14.5 -13.953125 L 14.5 -14.453125 C 14.5 -15.578125 14.25 -16.5 13.75 -17.21875 C 13.25 -17.945312 12.5 -18.3125 11.5 -18.3125 C 10.53125 -18.3125 9.8125 -17.96875 9.34375 -17.28125 C 8.875 -16.601562 8.59375 -15.492188 8.5 -13.953125 Z M 8.5 -13.953125 "/></g></g></g></svg>