<svg xmlns="http://www.w3.org/2000/svg" xmlns:xlink="http://www.w3.org/1999/xlink" width="500" zoomAndPan="magnify" viewBox="0 0 375 149.999998" height="200" preserveAspectRatio="xMidYMid meet" version="1.0"><defs><g/><clipPath id="6ea89b2315"><path d="M 213 38.679688 L 240.8125 38.679688 L 240.8125 117.429688 L 213 117.429688 Z M 213 38.679688 " clip-rule="nonzero"/></clipPath><clipPath id="7bf1290f95"><path d="M 179.3125 38.679688 L 207 38.679688 L 207 117.429688 L 179.3125 117.429688 Z M 179.3125 38.679688 " clip-rule="nonzero"/></clipPath></defs><g clip-path="url(#6ea89b2315)"><path fill="#000000" d="M 213.679688 41.828125 C 213.679688 39.964844 215.195312 38.453125 217.066406 38.453125 L 219.328125 38.453125 C 226.191406 38.453125 231.757812 43.992188 231.757812 50.828125 L 231.757812 66.578125 C 231.757812 68.347656 232.59375 70.015625 234.019531 71.078125 L 239.441406 75.128906 C 240.257812 75.734375 240.753906 76.675781 240.796875 77.6875 C 240.835938 78.699219 240.421875 79.679688 239.660156 80.351562 L 233.65625 85.664062 C 232.984375 86.257812 232.476562 86.988281 232.152344 87.800781 C 231.464844 89.535156 229.496094 90.382812 227.753906 89.699219 C 226.011719 89.011719 225.160156 87.050781 225.847656 85.316406 C 226.558594 83.535156 227.679688 81.921875 229.152344 80.617188 L 232.054688 78.050781 L 229.949219 76.476562 C 226.820312 74.140625 224.976562 70.472656 224.976562 66.578125 L 224.976562 50.828125 C 224.976562 47.722656 222.449219 45.203125 219.328125 45.203125 L 217.066406 45.203125 C 215.195312 45.203125 213.679688 43.691406 213.679688 41.828125 Z M 228.367188 101.453125 C 230.242188 101.453125 231.757812 102.964844 231.757812 104.828125 C 231.757812 111.664062 226.191406 117.203125 219.328125 117.203125 L 217.066406 117.203125 C 215.195312 117.203125 213.679688 115.691406 213.679688 113.828125 C 213.679688 111.964844 215.195312 110.453125 217.066406 110.453125 L 219.328125 110.453125 C 222.449219 110.453125 224.976562 107.933594 224.976562 104.828125 C 224.976562 102.964844 226.496094 101.453125 228.367188 101.453125 Z M 228.367188 101.453125 " fill-opacity="1" fill-rule="evenodd"/></g><g clip-path="url(#7bf1290f95)"><path fill="#000000" d="M 206.898438 41.828125 C 206.898438 39.964844 205.378906 38.453125 203.507812 38.453125 L 201.246094 38.453125 C 194.382812 38.453125 188.816406 43.992188 188.816406 50.828125 L 188.816406 66.578125 C 188.816406 68.347656 187.980469 70.015625 186.558594 71.078125 L 181.132812 75.128906 C 180.320312 75.734375 179.820312 76.675781 179.78125 77.6875 C 179.738281 78.699219 180.15625 79.679688 180.914062 80.351562 L 186.921875 85.664062 C 188.125 86.730469 188.816406 88.261719 188.816406 89.867188 L 188.816406 104.828125 C 188.816406 111.664062 194.382812 117.203125 201.246094 117.203125 L 203.507812 117.203125 C 205.378906 117.203125 206.898438 115.691406 206.898438 113.828125 C 206.898438 111.964844 205.378906 110.453125 203.507812 110.453125 L 201.246094 110.453125 C 198.128906 110.453125 195.597656 107.933594 195.597656 104.828125 L 195.597656 89.867188 C 195.597656 86.332031 194.078125 82.96875 191.425781 80.617188 L 188.519531 78.050781 L 190.625 76.476562 C 193.753906 74.140625 195.597656 70.472656 195.597656 66.578125 L 195.597656 50.828125 C 195.597656 47.722656 198.128906 45.203125 201.246094 45.203125 L 203.507812 45.203125 C 205.378906 45.203125 206.898438 43.691406 206.898438 41.828125 Z M 206.898438 41.828125 " fill-opacity="1" fill-rule="evenodd"/></g><path fill="#f39200" d="M 213.566406 101.6875 C 223.230469 96.734375 234.507812 95.597656 245.226562 95.335938 C 256.765625 95.042969 268.273438 95.792969 279.746094 96.832031 C 291.355469 97.910156 302.925781 99.242188 314.566406 100.058594 C 320.351562 100.449219 326.171875 100.675781 331.992188 100.707031 C 337.449219 100.742188 342.972656 100.773438 348.429688 100.121094 C 353.917969 99.472656 359.410156 97.941406 363.617188 94.195312 C 367.300781 90.90625 369.964844 85.894531 368.945312 80.910156 C 368.515625 78.828125 365.230469 79.316406 365.230469 81.398438 C 365.261719 85.828125 363.519531 89.570312 360.066406 92.371094 C 356.1875 95.53125 350.992188 96.636719 346.160156 97.222656 C 335.179688 98.496094 324 98.070312 312.988281 97.320312 C 290.628906 95.757812 268.339844 92.144531 245.882812 92.925781 C 234.441406 93.285156 222.871094 94.585938 212.90625 100.578125 C 212.183594 101 212.808594 102.078125 213.566406 101.6875 Z M 213.566406 101.6875 " fill-opacity="1" fill-rule="nonzero"/><path fill="#f39200" d="M 217.90625 94.457031 C 227.703125 90.90625 237.828125 90.0625 248.1875 89.996094 C 248.746094 89.996094 248.941406 89.050781 248.316406 88.984375 C 237.960938 87.457031 227.175781 89.898438 217.675781 94.035156 C 217.476562 94.132812 217.640625 94.554688 217.90625 94.457031 Z M 217.90625 94.457031 " fill-opacity="1" fill-rule="nonzero"/><path fill="#f39200" d="M 359.773438 100.15625 C 363.550781 99.632812 367.039062 97.84375 369.667969 95.140625 C 371.015625 93.773438 372.167969 92.210938 372.957031 90.484375 C 373.613281 89.117188 374.828125 86.675781 373.84375 85.273438 C 373.382812 84.621094 372.59375 84.523438 372.003906 85.046875 C 370.882812 85.992188 371.046875 88.140625 370.589844 89.507812 C 370.0625 91.070312 369.304688 92.535156 368.351562 93.871094 C 366.214844 96.769531 363.15625 98.886719 359.671875 99.828125 C 359.441406 99.863281 359.542969 100.1875 359.773438 100.15625 Z M 359.773438 100.15625 " fill-opacity="1" fill-rule="nonzero"/><g fill="#000000" fill-opacity="1"><g transform="translate(0.0127565, 89.814322)"><g><path d="M 3.03125 0 L 3.03125 -34.9375 L 10.296875 -34.9375 L 10.296875 -21.796875 L 10.53125 -21.796875 C 10.851562 -22.515625 11.316406 -23.238281 11.921875 -23.96875 C 12.523438 -24.695312 13.320312 -25.304688 14.3125 -25.796875 C 15.300781 -26.296875 16.523438 -26.546875 17.984375 -26.546875 C 19.898438 -26.546875 21.660156 -26.046875 23.265625 -25.046875 C 24.867188 -24.054688 26.15625 -22.5625 27.125 -20.5625 C 28.101562 -18.5625 28.59375 -16.0625 28.59375 -13.0625 C 28.59375 -10.144531 28.117188 -7.679688 27.171875 -5.671875 C 26.222656 -3.660156 24.945312 -2.140625 23.34375 -1.109375 C 21.75 -0.0859375 19.953125 0.421875 17.953125 0.421875 C 16.546875 0.421875 15.347656 0.191406 14.359375 -0.265625 C 13.378906 -0.734375 12.578125 -1.320312 11.953125 -2.03125 C 11.335938 -2.75 10.863281 -3.472656 10.53125 -4.203125 L 10.203125 -4.203125 L 10.203125 0 Z M 10.15625 -13.09375 C 10.15625 -10.769531 10.632812 -8.898438 11.59375 -7.484375 C 12.550781 -6.066406 13.90625 -5.359375 15.65625 -5.359375 C 17.4375 -5.359375 18.800781 -6.078125 19.75 -7.515625 C 20.695312 -8.953125 21.171875 -10.8125 21.171875 -13.09375 C 21.171875 -15.375 20.703125 -17.21875 19.765625 -18.625 C 18.828125 -20.039062 17.457031 -20.75 15.65625 -20.75 C 13.894531 -20.75 12.535156 -20.054688 11.578125 -18.671875 C 10.628906 -17.296875 10.15625 -15.4375 10.15625 -13.09375 Z M 10.15625 -13.09375 "/></g></g></g><g fill="#000000" fill-opacity="1"><g transform="translate(30.51751, 89.814322)"><g><path d="M 10.171875 -34.9375 L 10.171875 0 L 2.90625 0 L 2.90625 -34.9375 Z M 10.171875 -34.9375 "/></g></g></g><g fill="#000000" fill-opacity="1"><g transform="translate(43.578797, 89.814322)"><g><path d="M 14.84375 0.515625 C 12.15625 0.515625 9.835938 -0.03125 7.890625 -1.125 C 5.953125 -2.226562 4.457031 -3.785156 3.40625 -5.796875 C 2.363281 -7.816406 1.84375 -10.210938 1.84375 -12.984375 C 1.84375 -15.671875 2.363281 -18.03125 3.40625 -20.0625 C 4.457031 -22.101562 5.929688 -23.691406 7.828125 -24.828125 C 9.734375 -25.972656 11.972656 -26.546875 14.546875 -26.546875 C 16.859375 -26.546875 18.941406 -26.054688 20.796875 -25.078125 C 22.660156 -24.097656 24.132812 -22.617188 25.21875 -20.640625 C 26.3125 -18.671875 26.859375 -16.203125 26.859375 -13.234375 L 26.859375 -11.234375 L 9.015625 -11.234375 L 9.015625 -11.21875 C 9.015625 -9.269531 9.550781 -7.726562 10.625 -6.59375 C 11.695312 -5.46875 13.140625 -4.90625 14.953125 -4.90625 C 16.171875 -4.90625 17.222656 -5.160156 18.109375 -5.671875 C 18.992188 -6.191406 19.617188 -6.953125 19.984375 -7.953125 L 26.703125 -7.5 C 26.191406 -5.070312 24.894531 -3.128906 22.8125 -1.671875 C 20.738281 -0.210938 18.082031 0.515625 14.84375 0.515625 Z M 9.015625 -15.75 L 20.03125 -15.75 C 20.007812 -17.300781 19.503906 -18.582031 18.515625 -19.59375 C 17.535156 -20.601562 16.253906 -21.109375 14.671875 -21.109375 C 13.054688 -21.109375 11.726562 -20.585938 10.6875 -19.546875 C 9.65625 -18.503906 9.097656 -17.238281 9.015625 -15.75 Z M 9.015625 -15.75 "/></g></g></g><g fill="#f39200" fill-opacity="1"><g transform="translate(72.285929, 89.814322)"><g><path d="M 2.90625 0 L 2.90625 -34.9375 L 10.171875 -34.9375 L 10.171875 -16.25 L 10.5625 -16.25 L 18.953125 -26.203125 L 27.296875 -26.203125 L 17.5625 -14.859375 L 27.78125 0 L 19.28125 0 L 12.125 -10.5625 L 10.171875 -8.328125 L 10.171875 0 Z M 2.90625 0 "/></g></g></g><g fill="#f39200" fill-opacity="1"><g transform="translate(99.124446, 89.814322)"><g><path d="M 14.734375 0.515625 C 12.085938 0.515625 9.800781 -0.046875 7.875 -1.171875 C 5.945312 -2.304688 4.457031 -3.890625 3.40625 -5.921875 C 2.363281 -7.953125 1.84375 -10.3125 1.84375 -13 C 1.84375 -15.707031 2.363281 -18.070312 3.40625 -20.09375 C 4.457031 -22.125 5.945312 -23.707031 7.875 -24.84375 C 9.800781 -25.976562 12.085938 -26.546875 14.734375 -26.546875 C 17.390625 -26.546875 19.679688 -25.976562 21.609375 -24.84375 C 23.535156 -23.707031 25.019531 -22.125 26.0625 -20.09375 C 27.101562 -18.070312 27.625 -15.707031 27.625 -13 C 27.625 -10.3125 27.101562 -7.953125 26.0625 -5.921875 C 25.019531 -3.890625 23.535156 -2.304688 21.609375 -1.171875 C 19.679688 -0.046875 17.390625 0.515625 14.734375 0.515625 Z M 14.765625 -5.109375 C 16.566406 -5.109375 17.929688 -5.859375 18.859375 -7.359375 C 19.785156 -8.867188 20.25 -10.765625 20.25 -13.046875 C 20.25 -15.328125 19.785156 -17.222656 18.859375 -18.734375 C 17.929688 -20.242188 16.566406 -21 14.765625 -21 C 12.941406 -21 11.5625 -20.242188 10.625 -18.734375 C 9.695312 -17.222656 9.234375 -15.328125 9.234375 -13.046875 C 9.234375 -10.765625 9.695312 -8.867188 10.625 -7.359375 C 11.5625 -5.859375 12.941406 -5.109375 14.765625 -5.109375 Z M 14.765625 -5.109375 "/></g></g></g><g fill="#000000" fill-opacity="1"><g transform="translate(128.59192, 89.814322)"><g><path d="M 16.828125 -26.203125 L 16.828125 -20.734375 L 11.90625 -20.734375 L 11.90625 -8.046875 C 11.90625 -7.046875 12.128906 -6.367188 12.578125 -6.015625 C 13.035156 -5.660156 13.628906 -5.484375 14.359375 -5.484375 C 14.703125 -5.484375 15.039062 -5.515625 15.375 -5.578125 C 15.71875 -5.648438 15.984375 -5.703125 16.171875 -5.734375 L 17.3125 -0.328125 C 16.945312 -0.210938 16.429688 -0.078125 15.765625 0.078125 C 15.109375 0.234375 14.3125 0.328125 13.375 0.359375 C 10.738281 0.472656 8.617188 -0.09375 7.015625 -1.34375 C 5.421875 -2.601562 4.628906 -4.519531 4.640625 -7.09375 L 4.640625 -20.734375 L 1.0625 -20.734375 L 1.0625 -26.203125 L 4.640625 -26.203125 L 4.640625 -32.46875 L 11.90625 -32.46875 L 11.90625 -26.203125 Z M 16.828125 -26.203125 "/></g></g></g><g fill="#000000" fill-opacity="1"><g transform="translate(147.246032, 89.814322)"><g><path d="M 10.375 0.5 C 7.875 0.5 5.796875 -0.148438 4.140625 -1.453125 C 2.492188 -2.765625 1.671875 -4.71875 1.671875 -7.3125 C 1.671875 -9.269531 2.128906 -10.804688 3.046875 -11.921875 C 3.972656 -13.035156 5.179688 -13.847656 6.671875 -14.359375 C 8.171875 -14.878906 9.785156 -15.222656 11.515625 -15.390625 C 13.785156 -15.609375 15.410156 -15.84375 16.390625 -16.09375 C 17.367188 -16.34375 17.859375 -16.890625 17.859375 -17.734375 L 17.859375 -17.84375 C 17.859375 -18.925781 17.519531 -19.757812 16.84375 -20.34375 C 16.164062 -20.9375 15.207031 -21.234375 13.96875 -21.234375 C 12.65625 -21.234375 11.613281 -20.945312 10.84375 -20.375 C 10.070312 -19.8125 9.5625 -19.09375 9.3125 -18.21875 L 2.59375 -18.765625 C 3.09375 -21.148438 4.332031 -23.039062 6.3125 -24.4375 C 8.300781 -25.84375 10.863281 -26.546875 14 -26.546875 C 15.945312 -26.546875 17.765625 -26.238281 19.453125 -25.625 C 21.148438 -25.007812 22.519531 -24.050781 23.5625 -22.75 C 24.601562 -21.445312 25.125 -19.753906 25.125 -17.671875 L 25.125 0 L 18.234375 0 L 18.234375 -3.640625 L 18.03125 -3.640625 C 17.394531 -2.421875 16.441406 -1.425781 15.171875 -0.65625 C 13.898438 0.113281 12.300781 0.5 10.375 0.5 Z M 12.453125 -4.515625 C 14.046875 -4.515625 15.351562 -4.976562 16.375 -5.90625 C 17.394531 -6.832031 17.90625 -7.984375 17.90625 -9.359375 L 17.90625 -12.140625 C 17.625 -11.953125 17.179688 -11.78125 16.578125 -11.625 C 15.984375 -11.476562 15.347656 -11.351562 14.671875 -11.25 C 13.992188 -11.144531 13.390625 -11.050781 12.859375 -10.96875 C 11.585938 -10.78125 10.5625 -10.421875 9.78125 -9.890625 C 9 -9.359375 8.609375 -8.582031 8.609375 -7.5625 C 8.609375 -6.5625 8.96875 -5.800781 9.6875 -5.28125 C 10.414062 -4.769531 11.335938 -4.515625 12.453125 -4.515625 Z M 12.453125 -4.515625 "/></g></g></g><g fill="#000000" fill-opacity="1"><g transform="translate(244.757566, 87.587756)"><g><path d="M 12.1875 0.46875 C 10.175781 0.46875 8.410156 -0.0078125 6.890625 -0.96875 C 5.378906 -1.925781 4.203125 -3.265625 3.359375 -4.984375 C 2.515625 -6.710938 2.09375 -8.726562 2.09375 -11.03125 C 2.09375 -13.351562 2.515625 -15.378906 3.359375 -17.109375 C 4.203125 -18.847656 5.378906 -20.191406 6.890625 -21.140625 C 8.410156 -22.097656 10.175781 -22.578125 12.1875 -22.578125 C 14.207031 -22.578125 15.972656 -22.097656 17.484375 -21.140625 C 18.992188 -20.191406 20.171875 -18.847656 21.015625 -17.109375 C 21.867188 -15.378906 22.296875 -13.351562 22.296875 -11.03125 C 22.296875 -8.726562 21.867188 -6.710938 21.015625 -4.984375 C 20.171875 -3.265625 18.992188 -1.925781 17.484375 -0.96875 C 15.972656 -0.0078125 14.207031 0.46875 12.1875 0.46875 Z M 12.1875 -2.609375 C 13.71875 -2.609375 14.976562 -3 15.96875 -3.78125 C 16.957031 -4.570312 17.6875 -5.601562 18.15625 -6.875 C 18.632812 -8.15625 18.875 -9.539062 18.875 -11.03125 C 18.875 -12.519531 18.632812 -13.90625 18.15625 -15.1875 C 17.6875 -16.476562 16.957031 -17.519531 15.96875 -18.3125 C 14.976562 -19.113281 13.71875 -19.515625 12.1875 -19.515625 C 10.664062 -19.515625 9.410156 -19.113281 8.421875 -18.3125 C 7.429688 -17.519531 6.695312 -16.476562 6.21875 -15.1875 C 5.75 -13.90625 5.515625 -12.519531 5.515625 -11.03125 C 5.515625 -9.539062 5.75 -8.15625 6.21875 -6.875 C 6.695312 -5.601562 7.429688 -4.570312 8.421875 -3.78125 C 9.410156 -3 10.664062 -2.609375 12.1875 -2.609375 Z M 12.1875 -2.609375 "/></g></g></g><g fill="#000000" fill-opacity="1"><g transform="translate(269.137086, 87.587756)"><g><path d="M 6.5625 -13.40625 L 6.5625 0 L 3.140625 0 L 3.140625 -22.296875 L 6.4375 -22.296875 L 6.4375 -18.8125 L 6.734375 -18.8125 C 7.253906 -19.945312 8.046875 -20.859375 9.109375 -21.546875 C 10.179688 -22.234375 11.554688 -22.578125 13.234375 -22.578125 C 15.492188 -22.578125 17.316406 -21.882812 18.703125 -20.5 C 20.085938 -19.125 20.78125 -17.015625 20.78125 -14.171875 L 20.78125 0 L 17.359375 0 L 17.359375 -13.9375 C 17.359375 -15.6875 16.898438 -17.050781 15.984375 -18.03125 C 15.078125 -19.019531 13.832031 -19.515625 12.25 -19.515625 C 10.613281 -19.515625 9.253906 -18.984375 8.171875 -17.921875 C 7.097656 -16.859375 6.5625 -15.351562 6.5625 -13.40625 Z M 6.5625 -13.40625 "/></g></g></g><g fill="#000000" fill-opacity="1"><g transform="translate(293.052227, 87.587756)"><g><path d="M 6.5625 -29.734375 L 6.5625 0 L 3.140625 0 L 3.140625 -29.734375 Z M 6.5625 -29.734375 "/></g></g></g><g fill="#000000" fill-opacity="1"><g transform="translate(302.745994, 87.587756)"><g><path d="M 3.140625 0 L 3.140625 -22.296875 L 6.5625 -22.296875 L 6.5625 0 Z M 4.875 -26.015625 C 4.207031 -26.015625 3.632812 -26.238281 3.15625 -26.6875 C 2.675781 -27.144531 2.4375 -27.691406 2.4375 -28.328125 C 2.4375 -28.972656 2.675781 -29.519531 3.15625 -29.96875 C 3.632812 -30.425781 4.207031 -30.65625 4.875 -30.65625 C 5.539062 -30.65625 6.113281 -30.425781 6.59375 -29.96875 C 7.070312 -29.519531 7.3125 -28.972656 7.3125 -28.328125 C 7.3125 -27.691406 7.070312 -27.144531 6.59375 -26.6875 C 6.113281 -26.238281 5.539062 -26.015625 4.875 -26.015625 Z M 4.875 -26.015625 "/></g></g></g><g fill="#000000" fill-opacity="1"><g transform="translate(312.43976, 87.587756)"><g><path d="M 6.5625 -13.40625 L 6.5625 0 L 3.140625 0 L 3.140625 -22.296875 L 6.4375 -22.296875 L 6.4375 -18.8125 L 6.734375 -18.8125 C 7.253906 -19.945312 8.046875 -20.859375 9.109375 -21.546875 C 10.179688 -22.234375 11.554688 -22.578125 13.234375 -22.578125 C 15.492188 -22.578125 17.316406 -21.882812 18.703125 -20.5 C 20.085938 -19.125 20.78125 -17.015625 20.78125 -14.171875 L 20.78125 0 L 17.359375 0 L 17.359375 -13.9375 C 17.359375 -15.6875 16.898438 -17.050781 15.984375 -18.03125 C 15.078125 -19.019531 13.832031 -19.515625 12.25 -19.515625 C 10.613281 -19.515625 9.253906 -18.984375 8.171875 -17.921875 C 7.097656 -16.859375 6.5625 -15.351562 6.5625 -13.40625 Z M 6.5625 -13.40625 "/></g></g></g><g fill="#000000" fill-opacity="1"><g transform="translate(336.354901, 87.587756)"><g><path d="M 12.484375 0.46875 C 10.335938 0.46875 8.484375 -0.00390625 6.921875 -0.953125 C 5.367188 -1.910156 4.175781 -3.25 3.34375 -4.96875 C 2.507812 -6.6875 2.09375 -8.6875 2.09375 -10.96875 C 2.09375 -13.257812 2.507812 -15.273438 3.34375 -17.015625 C 4.175781 -18.765625 5.34375 -20.128906 6.84375 -21.109375 C 8.351562 -22.085938 10.117188 -22.578125 12.140625 -22.578125 C 13.296875 -22.578125 14.4375 -22.382812 15.5625 -22 C 16.695312 -21.613281 17.726562 -20.988281 18.65625 -20.125 C 19.59375 -19.257812 20.335938 -18.113281 20.890625 -16.6875 C 21.441406 -15.269531 21.71875 -13.519531 21.71875 -11.4375 L 21.71875 -9.984375 L 5.53125 -9.984375 C 5.601562 -7.609375 6.273438 -5.785156 7.546875 -4.515625 C 8.828125 -3.242188 10.472656 -2.609375 12.484375 -2.609375 C 13.828125 -2.609375 14.984375 -2.898438 15.953125 -3.484375 C 16.921875 -4.066406 17.625 -4.9375 18.0625 -6.09375 L 21.359375 -5.171875 C 20.835938 -3.484375 19.789062 -2.117188 18.21875 -1.078125 C 16.65625 -0.046875 14.742188 0.46875 12.484375 0.46875 Z M 5.53125 -12.953125 L 18.234375 -12.953125 C 18.234375 -14.835938 17.679688 -16.398438 16.578125 -17.640625 C 15.472656 -18.890625 13.992188 -19.515625 12.140625 -19.515625 C 10.828125 -19.515625 9.691406 -19.207031 8.734375 -18.59375 C 7.773438 -17.976562 7.019531 -17.171875 6.46875 -16.171875 C 5.914062 -15.171875 5.601562 -14.097656 5.53125 -12.953125 Z M 5.53125 -12.953125 "/></g></g></g></svg>